<!-- icon666.com - MILLIONS vector ICONS FREE --><svg viewBox="0 0 512 512" xmlns="http://www.w3.org/2000/svg"><g id="Ebene_2" data-name="Ebene 2"><path d="m179.56 200a39.57 39.57 0 1 0 -39.51-39.62 39.66 39.66 0 0 0 39.51 39.62zm0-57.8a18.24 18.24 0 1 1 -18.18 18.18 18.26 18.26 0 0 1 18.18-18.21z"></path><path d="m361.21 314.63a10.66 10.66 0 0 0 -9.19-5.3 10.67 10.67 0 0 0 -8.36 4.05l-33.75 33.75a10.66 10.66 0 1 0 15.09 15.08l16.33-16.32-.08 38.11a10.66 10.66 0 0 0 10.65 10.68 10.67 10.67 0 0 0 10.68-10.68l.05-37.79 15.92 15.91a10.66 10.66 0 1 0 15.08-15.08z"></path><path d="m412.34 291.66a85.32 85.32 0 0 0 -145 49.67h-154.06a17.3 17.3 0 0 1 -17.28-17.27v-2.56l67.75-67a29.36 29.36 0 0 1 38.3-2.11l17.1 16.83 1.27 1.08c7.11 5.08 17.41 4.85 23.86-.37l55.31-54.41a51.86 51.86 0 0 1 52.23-12.33 49.25 49.25 0 0 1 15.76 8.51l5.75 5.67v6.63a10.67 10.67 0 0 0 21.34 0v-100.06a38.66 38.66 0 0 0 -38.62-38.61h-242.77a38.65 38.65 0 0 0 -38.61 38.61v200.12a38.65 38.65 0 0 0 38.61 38.6h154.07a85.32 85.32 0 1 0 145-71zm-299.06-185h242.77a17.3 17.3 0 0 1 17.28 17.28v65.81a69.12 69.12 0 0 0 -15-6.91 73.09 73.09 0 0 0 -73.68 17.45l-52.55 51.71-5-5 .18-.17-7.87-7.69a50.81 50.81 0 0 0 -70.58.06l-52.83 52.29v-167.55a17.3 17.3 0 0 1 17.28-17.28zm284 290.6a64 64 0 1 1 18.72-45.26 64.1 64.1 0 0 1 -18.74 45.26z"></path></g></svg>