<!-- icon666.com - MILLIONS vector ICONS FREE --><svg clip-rule="evenodd" fill-rule="evenodd" image-rendering="optimizeQuality" shape-rendering="geometricPrecision" text-rendering="geometricPrecision" viewBox="0 0 512 512" xmlns="http://www.w3.org/2000/svg"><g id="Layer_x0020_1"><g id="_284649424"><g id="_207700176"><path d="m416 511h-320c-3 0-6-2-6-6v-253c0-3 3-6 6-6h320c3 0 6 3 6 6v253c0 4-3 6-6 6zm-314-12h308v-241h-308z"></path></g><g id="_207700344"><path d="m416 258h-320c-2 0-4-1-5-4-1-2-1-4 1-6l28-34c1-2 3-3 5-3h262c2 0 4 1 5 3l28 34c2 2 2 4 1 6-1 3-3 4-5 4zm-307-12h294l-19-23h-256z"></path></g><g id="_207700560"><path d="m288 314h-64c-4 0-6-2-6-6v-56c0-3 2-6 6-6h64c4 0 6 3 6 6v56c0 4-2 6-6 6zm-58-12h52v-44h-52z"></path></g><g id="_207700200"><path d="m213 452h-86c-3 0-6-2-6-6 0-3 3-6 6-6h86c4 0 6 3 6 6 0 4-2 6-6 6z"></path></g><g id="_207700440"><path d="m179 480h-52c-3 0-6-2-6-6 0-3 3-6 6-6h52c3 0 6 3 6 6 0 4-3 6-6 6z"></path></g><g id="_207700632"><path d="m434 511h-356c-4 0-6-2-6-6 0-3 2-6 6-6h356c4 0 6 3 6 6 0 4-2 6-6 6z"></path></g><g id="_207700416"><path d="m232 186h-192c-4 0-6-2-6-6v-153c0-3 2-6 6-6h192c4 0 6 3 6 6v153c0 4-2 6-6 6zm-186-12h180v-141h-180z"></path></g><g id="_207700944"><path d="m232 33h-192c-3 0-5-1-6-3s-1-5 1-6l17-21c1-2 3-2 5-2h158c2 0 4 0 5 2l17 21c1 1 2 4 1 6s-3 3-6 3zm-180-12h168l-8-8h-152z"></path></g><g id="_207701280"><path d="m156 67h-40c-3 0-6-2-6-6v-34c0-3 3-6 6-6h40c3 0 6 3 6 6v34c0 4-3 6-6 6zm-34-12h28v-22h-28z"></path></g><g id="_207701184"><path d="m472 186h-192c-4 0-6-2-6-6v-153c0-3 2-6 6-6h192c4 0 6 3 6 6v153c0 4-2 6-6 6zm-186-12h180v-141h-180z"></path></g><g id="_207700896"><path d="m472 33h-192c-3 0-5-1-6-3s0-5 1-6l17-21c1-2 3-2 5-2h158c2 0 4 0 5 2l17 21c2 1 2 4 1 6s-3 3-6 3zm-180-12h168l-8-8h-152z"></path></g><g id="_207700656"><path d="m396 67h-40c-3 0-6-2-6-6v-34c0-3 3-6 6-6h40c3 0 6 3 6 6v34c0 4-3 6-6 6zm-34-12h28v-22h-28z"></path></g></g></g></svg>