<!-- icon666.com - MILLIONS vector ICONS FREE --><svg enable-background="new 0 0 64 64" viewBox="0 0 64 64" xmlns="http://www.w3.org/2000/svg"><g id="Layer_1"><g><g id="LINE_189_"><g><path d="m8 57.001c-.553 0-1-.447-1-1v-48.001c0-.552.447-1 1-1s1 .448 1 1v48c0 .554-.447 1.001-1 1.001z"></path></g></g><g id="LINE_188_"><g><path d="m13.999 13c-.19 0-.383-.054-.554-.168l-6-4c-.46-.306-.584-.927-.277-1.387.306-.46.925-.585 1.387-.277l6 4c.46.306.584.927.277 1.387-.192.289-.51.445-.833.445z"></path></g></g><g id="LINE_187_"><g><path d="m14.001 13c-.323 0-.641-.156-.833-.445-.307-.459-.183-1.081.277-1.387l6-4c.46-.308 1.081-.183 1.387.277.307.459.183 1.081-.277 1.387l-6 4c-.171.114-.364.168-.554.168z"></path></g></g><g id="LINE_186_"><g><path d="m25.999 13c-.19 0-.383-.054-.554-.168l-6-4c-.46-.306-.584-.927-.277-1.387.306-.46.925-.585 1.387-.277l6 4c.46.306.584.927.277 1.387-.192.289-.51.445-.833.445z"></path></g></g><g id="LINE_185_"><g><path d="m26.001 13c-.323 0-.641-.156-.833-.445-.307-.459-.183-1.081.277-1.387l6-4c.461-.308 1.081-.183 1.387.277.307.459.183 1.081-.277 1.387l-6 4c-.171.114-.364.168-.554.168z"></path></g></g><g id="LINE_184_"><g><path d="m37.999 13c-.19 0-.383-.054-.554-.168l-6-4c-.46-.306-.584-.927-.277-1.387.305-.46.925-.585 1.387-.277l6 4c.46.306.584.927.277 1.387-.192.289-.51.445-.833.445z"></path></g></g><g id="LINE_183_"><g><path d="m38.001 13c-.323 0-.641-.156-.833-.445-.307-.459-.183-1.081.277-1.387l6-4c.461-.308 1.081-.183 1.387.277.307.459.183 1.081-.277 1.387l-6 4c-.171.114-.364.168-.554.168z"></path></g></g><g id="LINE_182_"><g><path d="m31.999 57.001c-.19 0-.383-.055-.554-.168l-6-4c-.46-.307-.584-.928-.277-1.387.306-.461.926-.584 1.387-.277l6 4c.46.307.584.926.277 1.387-.192.289-.51.445-.833.445z"></path></g></g><g id="LINE_181_"><g><path d="m20.001 57.001c-.323 0-.641-.156-.833-.445-.307-.461-.183-1.08.277-1.387l6-4c.46-.307 1.08-.184 1.387.277.307.459.183 1.08-.277 1.387l-6 4c-.171.113-.364.168-.554.168z"></path></g></g><g id="LINE_180_"><g><path d="m19.999 57.001c-.19 0-.383-.055-.554-.168l-6-4c-.46-.307-.584-.928-.277-1.387.305-.461.925-.584 1.387-.277l6 4c.46.307.584.926.277 1.387-.192.289-.51.445-.833.445z"></path></g></g><g id="LINE_179_"><g><path d="m8.001 57.001c-.323 0-.641-.156-.833-.445-.307-.461-.183-1.08.277-1.387l6-4c.461-.307 1.08-.184 1.387.277.307.459.183 1.08-.277 1.387l-6 4c-.171.113-.364.168-.554.168z"></path></g></g><g id="LWPOLYLINE_39_"><g><path d="m48.581 50.833h-4.5c-.553 0-1-.447-1-1s.447-1 1-1h3.5v-1.5h-3.496c-.553 0-1-.447-1-1v-3.5c0-.553.447-1 1-1h4.5c.553 0 1 .447 1 1s-.447 1-1 1h-3.5v1.5h3.496c.553 0 1 .447 1 1v3.5c0 .553-.447 1-1 1z"></path></g></g><g id="LINE_178_"><g><path d="m46.335 43.833c-.553 0-1-.447-1-1v-2c0-.553.447-1 1-1s1 .447 1 1v2c0 .553-.447 1-1 1z"></path></g></g><g id="LINE_177_"><g><path d="m46.331 52.833c-.553 0-1-.447-1-1v-2c0-.553.447-1 1-1s1 .447 1 1v2c0 .553-.447 1-1 1z"></path></g></g><g id="CIRCLE_15_"><g><path d="m46.301 56.978c-.001 0-.001 0 0 0-2.103 0-4.122-.602-5.843-1.74-4.191-2.77-5.903-8.354-3.98-12.988 1.632-3.936 5.613-6.578 9.908-6.578.69 0 1.384.068 2.06.205 4.956.995 8.554 5.394 8.554 10.456 0 2.756-1.103 5.467-3.023 7.441-1.982 2.036-4.78 3.204-7.676 3.204zm.085-19.307c-3.496 0-6.735 2.148-8.061 5.344-1.563 3.766-.171 8.303 3.236 10.555 1.393.92 3.03 1.408 4.738 1.408h.001c2.359 0 4.635-.947 6.242-2.598 1.562-1.606 2.458-3.809 2.458-6.047 0-4.047-2.987-7.701-6.949-8.496-.546-.109-1.107-.166-1.665-.166z"></path></g></g><g id="LINE_176_"><g><path d="m44 31.841c-.553 0-1-.447-1-1v-22.841c0-.552.447-1 1-1s1 .448 1 1v22.841c0 .553-.447 1-1 1z"></path></g></g><g id="LINE_175_"><g><path d="m32.001 57.001c-.323 0-.641-.156-.833-.445-.307-.459-.183-1.08.277-1.387l3.014-2.01c.458-.307 1.08-.182 1.387.277s.183 1.08-.277 1.387l-3.014 2.01c-.17.113-.364.168-.554.168z"></path></g></g><g id="LINE_174_"><g><path d="m38 19h-24c-.553 0-1-.448-1-1s.447-1 1-1h24c.553 0 1 .448 1 1s-.447 1-1 1z"></path></g></g><g id="LINE_173_"><g><path d="m38 25h-24c-.553 0-1-.448-1-1s.447-1 1-1h24c.553 0 1 .448 1 1s-.447 1-1 1z"></path></g></g><g id="LINE_172_"><g><path d="m38 31h-24c-.553 0-1-.448-1-1s.447-1 1-1h24c.553 0 1 .448 1 1s-.447 1-1 1z"></path></g></g><g id="LINE_171_"><g><path d="m38 37.001h-24c-.553 0-1-.447-1-1s.447-1 1-1h24c.553 0 1 .447 1 1s-.447 1-1 1z"></path></g></g></g></g></svg>