<!-- icon666.com - MILLIONS vector ICONS FREE --><svg version="1.1" id="Capa_1" xmlns="http://www.w3.org/2000/svg" xmlns:xlink="http://www.w3.org/1999/xlink" x="0px" y="0px" viewBox="0 0 512 512" style="enable-background:new 0 0 512 512;" xml:space="preserve"><g><g><g><path d="M496,40H16C7.163,40,0,47.163,0,56v400c0,8.837,7.163,16,16,16h480c8.837,0,16-7.163,16-16V56 C512,47.163,504.837,40,496,40z M192,96h128v107.72l-16,10.68l-19.608-13.04c-2.685-1.786-6.179-1.786-8.864,0l-19.56,13.04 l-19.552-13.04c-2.688-1.794-6.192-1.794-8.88,0L208,214.4l-16-10.68V96z M320,80H192V56h128V80z M16,456V104h136V88H16V56h160 v152c-0.004,2.661,1.315,5.15,3.52,6.64l24,16c2.688,1.794,6.192,1.794,8.88,0l19.544-13.04l19.552,13.04 c2.686,1.79,6.186,1.79,8.872,0l19.568-13.04l19.624,13.064c1.316,0.874,2.861,1.339,4.44,1.336 c1.577,0.001,3.119-0.464,4.432-1.336l24-16c2.23-1.484,3.569-3.985,3.568-6.664V56h160v32H360v16h136v352H16z"></path><path d="M120,344H56c-4.418,0-8,3.582-8,8v64c0,4.418,3.582,8,8,8h64c4.418,0,8-3.582,8-8v-64C128,347.582,124.418,344,120,344z M100.691,360L64,396.691V360H100.691z M75.318,408L112,371.318V408H75.318z"></path><rect x="144" y="360" width="16" height="16"></rect><rect x="176" y="360" width="16" height="16"></rect><rect x="144" y="392" width="96" height="16"></rect><path d="M432,352c-17.673,0-32,14.327-32,32c0,17.673,14.327,32,32,32c17.673,0,32-14.327,32-32C464,366.327,449.673,352,432,352 z M432,400c-8.837,0-16-7.163-16-16s7.163-16,16-16s16,7.163,16,16S440.837,400,432,400z"></path></g></g></g></svg>