<!-- icon666.com - MILLIONS vector ICONS FREE --><svg xmlns="http://www.w3.org/2000/svg" id="Icons" viewBox="0 0 60 60"><path d="M57,43H51.444A3.959,3.959,0,0,0,52,41V15a4,4,0,0,0-4-4H22a3.959,3.959,0,0,0-2,.556V7a6.006,6.006,0,0,0-6-6H11.488A2.487,2.487,0,0,0,7.5,1H3a2.92,2.92,0,0,0-2.107.873A2.937,2.937,0,0,0,0,4,3,3,0,0,0,3,7H7.5a2.487,2.487,0,0,0,3.987,0H14V36.051A12,12,0,1,0,26.949,49H57a3.015,3.015,0,0,0,3-3A3,3,0,0,0,57,43ZM29,13H41V23.93l-.088.057-5.327-3.841a1,1,0,0,0-1.17,0l-5.327,3.841L29,23.93Zm-7,0h5V23.93a2.055,2.055,0,0,0,3.258,1.68L35,22.19l4.742,3.42A2.058,2.058,0,0,0,43,23.93V13h5a2,2,0,0,1,2,2V41a2,2,0,0,1-2,2H25.9A12.056,12.056,0,0,0,20,37.1V15A2,2,0,0,1,22,13ZM10,5.5a.5.5,0,0,1-.965.174A1,1,0,0,0,8.09,5H3A1,1,0,0,1,2,4a.977.977,0,0,1,.307-.713A.959.959,0,0,1,3,3H8.09a1,1,0,0,0,.945-.674A.5.5,0,0,1,10,2.5ZM12,5V3h2a4,4,0,0,1,4,4V36.4a11.89,11.89,0,0,0-2-.344V7a2,2,0,0,0-2-2Zm3,53A10,10,0,1,1,25,48,10.011,10.011,0,0,1,15,58ZM57.693,46.713A.959.959,0,0,1,57,47H26.949a11.89,11.89,0,0,0-.344-2H57a1,1,0,0,1,1,1A.977.977,0,0,1,57.693,46.713Z"></path><path d="M15,42a6,6,0,1,0,6,6A6.006,6.006,0,0,0,15,42Zm0,10a4,4,0,1,1,4-4A4,4,0,0,1,15,52Z"></path><path d="M38,36v2a1,1,0,0,0,2,0V36a1,1,0,0,0,.707-1.707l-1-1a1,1,0,0,0-1.414,0l-1,1A1,1,0,0,0,38,36Z"></path><path d="M44,36v2a1,1,0,0,0,2,0V36a1,1,0,0,0,.707-1.707l-1-1a1,1,0,0,0-1.414,0l-1,1A1,1,0,0,0,44,36Z"></path></svg>